:SAMPLES-PER-SECOND 30
:FULLY-SPECIFIED
:DEGREES
275
root  -22.3909 38.1139 0.731525 -44.5322 -84.9415 36.8179
RightUpLeg  -11.2364 -13.7307 -7.83126
RightLeg  68.6663 -1.52509 -5.06013
RightFoot  10.0021 -0.92267 5.17103
RightToes  0.00048216 0.542163 -0.142577
Spine  22.6324 3.47104 8.77041
Spine1  12.0893 8.38062 -9.32653
HEad  -0.115518 -18.895 2.51467
LeftShoulder1  9.03624 -13.5233 -46.2921
LeftArm  -8.34604 20.3061 -26.3472
LeftForeArm  32.7181 -30.4949 -4.84019
LeftHand  -0.25398 0.0180481 5.50724
RightShoulder  6.51413 11.7133 36.8005
RightArm  -4.91319 17.6388 33.0676
RightForeArm  -0.594199 50.5425 13.7364
RightHand  -8.35302 20.2987 -36.8696
LeftUpLeg  -21.7456 16.8437 -11.5465
LeftLeg  18.6139 0.288324 0.418224
LeftFoot  8.34999 -2.25176 12.6272
LeftToes  1.06246e-005 4.65856e-005 -8.18502e-006
276
root  -23.0079 38.4477 0.727173 -30.175 -83.8251 23.8371
RightUpLeg  -17.4078 -13.3318 -6.44367
RightLeg  68.3524 -1.43795 -4.79602
RightFoot  7.89394 -0.736624 4.71182
RightToes  0.00048216 0.542163 -0.142577
Spine  24.962 2.76089 10.6103
Spine1  12.2656 8.43572 -9.86255
HEad  -2.93387 -21.0257 3.12988
LeftShoulder1  9.08611 -13.7463 -45.9354
LeftArm  -8.60035 18.1658 -27.2294
LeftForeArm  33.4079 -34.7604 -5.83295
LeftHand  -0.25398 0.0180481 5.50724
RightShoulder  6.47621 11.9774 35.8485
RightArm  -6.15277 22.9722 31.6574
RightForeArm  -6.81407 44.6353 11.5075
RightHand  -9.02992 21.5647 -37.8806
LeftUpLeg  -21.1996 16.1119 -11.198
LeftLeg  16.9233 -0.863722 -0.437358
LeftFoot  8.90175 -2.32026 12.6372
LeftToes  1.06246e-005 4.65856e-005 -8.18502e-006
277
root  -23.5739 38.8164 0.68636 -18.5181 -82.4203 13.8729
RightUpLeg  -21.9616 -12.7743 -5.22521
RightLeg  62.7535 -1.89379 -4.54579
RightFoot  4.37663 -0.86134 6.44527
RightToes  0.00048216 0.542163 -0.142577
Spine  26.8529 2.17745 12.5646
Spine1  12.3445 8.53664 -10.0033
HEad  -5.56394 -23.3898 3.98738
LeftShoulder1  9.05424 -13.8661 -45.4419
LeftArm  -8.33674 16.3189 -28.2637
LeftForeArm  33.5768 -38.5936 -6.84729
LeftHand  -0.25398 0.0180481 5.50724
RightShoulder  6.40055 12.1762 34.8532
RightArm  -7.36981 28.2445 29.0539
RightForeArm  -12.6567 38.6064 9.67526
RightHand  -9.69237 22.7707 -38.812
LeftUpLeg  -20.6854 13.8177 -10.0235
LeftLeg  14.722 -0.388114 -1.50632
LeftFoot  9.51964 -2.35589 12.4281
LeftToes  1.06246e-005 4.65856e-005 -8.18502e-006
278
root  -24.1013 39.1222 0.608681 -11.1051 -80.9639 8.19098
RightUpLeg  -24.9565 -11.4267 -4.44776
RightLeg  53.4822 -3.83683 -5.84216
RightFoot  1.90484 -0.754046 6.54836
RightToes  0.00048216 0.542163 -0.142577
Spine  28.6478 1.72869 14.4868
Spine1  12.2649 8.83766 -10.2035
HEad  -8.06231 -25.8322 5.02815
LeftShoulder1  8.96729 -13.9211 -44.8402
LeftArm  -8.01451 14.9965 -29.1033
LeftForeArm  33.8137 -41.8129 -7.78845
LeftHand  -0.25398 0.0180481 5.50724
RightShoulder  6.26349 12.3233 33.6205
RightArm  -9.07324 32.9716 25.7314
RightForeArm  -17.1997 32.8349 8.16907
RightHand  -10.4931 24.1871 -39.8777
LeftUpLeg  -20.2666 10.9768 -8.55756
LeftLeg  12.5295 0.934324 -2.6901
LeftFoot  9.76227 -2.3291 12.1333
LeftToes  1.06246e-005 4.65856e-005 -8.18502e-006
279
root  -24.6205 39.3633 0.504796 -6.67543 -79.484 5.40075
RightUpLeg  -26.3656 -9.20064 -4.4229
RightLeg  41.6539 -6.97385 -6.89036
RightFoot  0.0759316 -0.473744 4.77494
RightToes  0.00048216 0.542163 -0.142577
Spine  30.3329 1.30203 16.2488
Spine1  12.2614 9.20772 -10.3823
HEad  -10.6228 -28.094 5.9976
LeftShoulder1  8.94975 -14.0288 -44.461
LeftArm  -7.9169 14.3136 -29.3474
LeftForeArm  34.3821 -44.5567 -8.64657
LeftHand  -0.25398 0.0180481 5.50724
RightShoulder  6.03336 12.3912 32.0043
RightArm  -11.5873 37.1781 21.9764
RightForeArm  -20.379 27.6394 6.93407
RightHand  -11.2503 25.4143 -40.9284
LeftUpLeg  -19.8971 7.90782 -7.13849
LeftLeg  10.2793 2.38395 -3.94098
LeftFoot  10.3286 -2.40089 12.1628
LeftToes  1.06246e-005 4.65856e-005 -8.18502e-006
280
root  -25.1735 39.4914 0.365561 -6.14477 -77.4896 6.47883
RightUpLeg  -26.4155 -7.43893 -5.75875
RightLeg  28.3338 -7.23231 -4.59483
RightFoot  0.0753189 -0.514193 5.0825
RightToes  0.00048216 0.542163 -0.142577
Spine  31.723 0.795718 17.2631
Spine1  12.5043 9.40265 -10.5147
HEad  -13.3402 -30.2156 6.84479
LeftShoulder1  9.0697 -14.2909 -44.3896
LeftArm  -7.81749 14.095 -28.9666
LeftForeArm  34.8912 -46.3469 -9.24259
LeftHand  -0.25398 0.0180481 5.50724
RightShoulder  5.69849 12.2943 30.0969
RightArm  -15.5594 40.8719 17.7276
RightForeArm  -22.0369 23.101 6.11981
RightHand  -11.544 25.8236 -41.3894
LeftUpLeg  -20.0526 4.83326 -6.64072
LeftLeg  8.94624 3.42784 -4.90584
LeftFoot  10.7519 -2.48414 12.3355
LeftToes  1.06246e-005 4.65856e-005 -8.18502e-006
281
root  -25.7684 39.5209 0.190615 -7.44405 -74.783 9.36308
RightUpLeg  -25.9392 -7.73436 -7.57543
RightLeg  16.6536 -1.70213 -0.722707
RightFoot  3.77787 -0.927889 7.15147
RightToes  0.00048216 0.542163 -0.142577
Spine  32.6664 0.185058 17.925
Spine1  12.8024 9.32041 -10.5868
HEad  -16.2308 -32.4642 8.06214
LeftShoulder1  9.24111 -14.6606 -44.304
LeftArm  -7.43992 14.0056 -28.3168
LeftForeArm  34.9128 -46.5643 -9.3246
LeftHand  -0.25398 0.0180481 5.50724
RightShoulder  5.26876 11.9514 28.0727
RightArm  -22.5268 43.6668 12.9664
RightForeArm  -21.0297 19.1094 6.20931
RightHand  -11.4713 25.6975 -41.3059
LeftUpLeg  -20.7232 2.49405 -7.30267
LeftLeg  8.89394 3.31479 -5.31631
LeftFoot  10.4578 -2.42528 12.2112
LeftToes  1.06246e-005 4.65856e-005 -8.18502e-006
